<?xml version="1.0" standalone="no"?>
<!DOCTYPE svg PUBLIC "-//W3C//DTD SVG 1.1//EN" "http://www.w3.org/Graphics/SVG/1.1/DTD/svg11.dtd" >
<svg xmlns="http://www.w3.org/2000/svg" xmlns:xlink="http://www.w3.org/1999/xlink" version="1.1">
<metadata>
Created by FontForge 20190801 at Wed Mar 11 16:42:54 2015
 By www-data
2015 Iconian Fonts - www.iconian.com
</metadata>
<defs>
<font id="dodger3" horiz-adv-x="948" >
  <font-face 
    font-family="dodger3"
    font-weight="400"
    font-stretch="normal"
    units-per-em="1000"
    panose-1="0 0 0 0 0 0 0 0 0 0"
    ascent="800"
    descent="-200"
    x-height="524"
    cap-height="524"
    bbox="-86 -164 1607 711"
    underline-thickness="50"
    underline-position="-125"
    unicode-range="U+0020-2122"
  />
<missing-glyph horiz-adv-x="500" 
 />
    <glyph glyph-name=".notdef" horiz-adv-x="500" 
 />
    <glyph glyph-name=".null" horiz-adv-x="0" 
 />
    <glyph glyph-name="nonmarkingreturn" horiz-adv-x="500" 
 />
    <glyph glyph-name="space" unicode=" " horiz-adv-x="556" 
 />
    <glyph glyph-name="space" unicode="&#xa0;" horiz-adv-x="556" 
 />
    <glyph glyph-name="FL0021h" unicode="!" horiz-adv-x="241" 
d="M191 524h-143v-328h143v328zM48 137v-137h143v137h-143z" />
    <glyph glyph-name="FL0022h" unicode="&#x22;" horiz-adv-x="432" 
d="M383 524h-142v-212q30 0 56 6t45 16t30 24t11 30v136zM191 524h-142v-212q30 0 56 6t45 16t30 24t11 30v136z" />
    <glyph glyph-name="FL0023h" unicode="#" horiz-adv-x="911" 
d="M49 430h175v94h143v-94h177v94h143v-94h175v-131h-175v-73h175v-131h-175v-95h-143v95h-177v-95h-143v95h-175v131h175v73h-175v131zM544 299h-177v-73h177v73z" />
    <glyph glyph-name="FL0024h" unicode="$" 
d="M757 197h-559q-29 0 -56 8.5t-47.5 24.5t-33 37.5t-12.5 47.5v13h701q29 0 56 -9t47.5 -24.5t33 -37.5t12.5 -48v-74q0 -32 -13.5 -57t-36 -42t-52 -26.5t-60.5 -9.5h-192v-112h-142v112h-354v137h708v60zM545 634v-110h354v-137h-850q0 31 13.5 56.5t36 43.5t51.5 27.5
t61 9.5h192v110h142z" />
    <glyph glyph-name="FL0025h" unicode="%" horiz-adv-x="1157" 
d="M678 524l-360 -524h162l360 524h-162zM1108 194q0 16 -7.5 28.5t-19 21.5t-26 13.5t-28.5 4.5h-263q-30 0 -55.5 -18t-25.5 -50v-127q0 -32 24.5 -49.5t56.5 -17.5h263q32 0 56.5 17.5t24.5 49.5v127zM974 172q24 0 33 -8t9 -27v-11q0 -20 -9 -28t-33 -8h-158
q-24 0 -32.5 7.5t-8.5 28.5v11q0 19 9 27t33 8h157zM474 455q0 16 -7.5 28.5t-19 21.5t-26 13.5t-28.5 4.5h-263q-30 0 -55.5 -18t-25.5 -50v-127q0 -32 24.5 -49.5t56.5 -17.5h263q32 0 56.5 17.5t24.5 49.5v127zM340 433q24 0 33 -8t9 -27v-11q0 -20 -9 -28t-33 -8h-158
q-24 0 -32.5 7.5t-8.5 28.5v11q0 19 9 27t33 8h157z" />
    <glyph glyph-name="FL0026h" unicode="&#x26;" horiz-adv-x="1003" 
d="M724 387h-533v-59h763v-131h-70v-62q0 -32 -13.5 -57t-36 -42t-52 -26.5t-60.5 -9.5h-511q-32 0 -61 9.5t-51.5 26.5t-36 42t-13.5 57v63q0 7 4.5 16.5t11.5 18.5t14.5 17t12.5 12q-12 10 -27.5 29t-15.5 35v63q0 31 13.5 56.5t36 42.5t51.5 26.5t61 9.5h513v-137z
M191 137h551v60h-551v-60z" />
    <glyph glyph-name="FL0027h" unicode="'" horiz-adv-x="240" 
d="M191 524h-142v-212q30 0 56 6t45 16t30 24t11 30v136z" />
    <glyph glyph-name="FL0028h" unicode="(" horiz-adv-x="453" 
d="M404 65h-126q-48 0 -67.5 19t-19.5 61v233q0 38 20 58.5t68 20.5h125v137h-193q-29 0 -58 -9.5t-52 -27t-37.5 -43t-14.5 -56.5v-396q0 -32 13.5 -57t36 -42t51.5 -26.5t61 -9.5h193v138z" />
    <glyph glyph-name="FL0029h" unicode=")" horiz-adv-x="453" 
d="M49 65h126q48 0 67.5 19t19.5 61v233q0 38 -20 58.5t-68 20.5h-125v137h193q29 0 58 -9.5t52 -27t37.5 -43t14.5 -56.5v-396q0 -32 -13.5 -57t-36 -42t-52 -26.5t-60.5 -9.5h-193v138z" />
    <glyph glyph-name="asterisk" unicode="*" horiz-adv-x="234" 
d="M201 474l-63 -36l-20 25l-17 -25l-70 36l35 24l-39 6l23 56l35 -12l-6 31h74l-6 -31l42 13l18 -57l-43 -6z" />
    <glyph glyph-name="FL002Bh" unicode="+" horiz-adv-x="640" 
d="M386 485v-157h205v-131h-205v-158h-131v158h-206v131h206v157h131z" />
    <glyph glyph-name="FL002Ch" unicode="," horiz-adv-x="240" 
d="M191 138h-142v-212q27 0 53 6t45.5 16t31.5 24t12 30v136z" />
    <glyph glyph-name="FL002Dh" unicode="-" horiz-adv-x="544" 
d="M49 328v-131h446v131h-446z" />
    <glyph glyph-name="FL002Eh" unicode="." horiz-adv-x="240" 
d="M191 138h-142v-138h142v138z" />
    <glyph glyph-name="FL002Fh" unicode="/" horiz-adv-x="576" 
d="M385 524l-358 -524h164l358 524h-164z" />
    <glyph glyph-name="FL0030h" unicode="0" 
d="M899 388q0 31 -14.5 56.5t-37.5 43t-52 27t-58 9.5h-526q-29 0 -58 -9.5t-52 -27t-37.5 -43t-14.5 -56.5v-253q0 -32 13.5 -57t36 -42t51.5 -26.5t61 -9.5h526q31 0 60.5 9.5t52 26.5t36 42t13.5 57v253zM669 387q48 0 68 -20.5t20 -58.5v-90q0 -40 -19.5 -60t-67.5 -20
h-392q-48 0 -67.5 19t-19.5 61v90q0 38 20 58.5t68 20.5h390zM546 332h-143v-138h143v138z" />
    <glyph glyph-name="FL0031h" unicode="1" horiz-adv-x="304" 
d="M113 0v387h-64v137h206v-524h-142z" />
    <glyph glyph-name="FL0032h" unicode="2" 
d="M191 197v-60h708v-137h-850v209q0 26 12.5 48t33 37.5t47.5 24.5t56 9h701v-13q0 -26 -12.5 -47.5t-33 -37.5t-47.5 -24.5t-56 -8.5h-559zM49 387v137h688q31 0 60.5 -9.5t52 -27.5t36 -43.5t13.5 -56.5h-850z" />
    <glyph glyph-name="FL0033h" unicode="3" 
d="M899 135q0 -32 -13.5 -57t-36 -42t-52 -26.5t-60.5 -9.5h-688v138h708v59h-708v131h850v-193zM49 387v137h688q29 0 58 -9t52 -26t37.5 -42t14.5 -56v-4h-850z" />
    <glyph glyph-name="FL0034h" unicode="4" 
d="M49 197v327h142v-196h566v196h142v-524h-142v197h-708z" />
    <glyph glyph-name="FL0035h" unicode="5" 
d="M757 197v-60h-708v-137h688q31 0 60.5 9.5t52 26.5t36 42t13.5 57v74q0 26 -12.5 48t-33 37.5t-47.5 24.5t-56 9h-701v-131h708zM899 387v137h-850v-137h850z" />
    <glyph glyph-name="FL0036h" unicode="6" 
d="M899 193v-68q0 -30 -15 -53.5t-38.5 -39t-52.5 -24t-56 -8.5h-526q-32 0 -61 9.5t-51.5 26.5t-36 42t-13.5 57v253q0 31 14.5 56.5t37.5 43t52 27t58 9.5h688v-137h-620q-42 0 -62 -15t-25 -44h545q31 0 60.5 -9.5t52 -26.5t36 -42.5t13.5 -56.5zM755 197h-563v-59h563
v59zM755 197l2 -1v1h-2z" />
    <glyph glyph-name="FL0037h" unicode="7" 
d="M283 0l354 328h193l-353 -328h-194zM899 387h-850v137h850v-137z" />
    <glyph glyph-name="FL0038h" unicode="8" 
d="M49 392q0 31 13.5 56t36 41.5t51.5 25.5t61 9h526q31 0 60.5 -9.5t52 -26.5t36 -42.5t13.5 -56.5v-63q0 -16 -15.5 -35t-27.5 -29q5 -4 12.5 -12t14 -17t11.5 -18.5t5 -16.5v-63q0 -32 -13.5 -57t-36 -42t-52 -26.5t-60.5 -9.5h-526q-32 0 -61 9.5t-51.5 26.5t-36 42
t-13.5 57v63q0 7 4.5 16.5t11.5 18.5t14.5 17t12.5 12q-6 5 -13.5 13t-14 17t-11 18.5t-4.5 17.5h708v59h-708v5zM757 137v60h-566v-60h566z" />
    <glyph glyph-name="FL0039h" unicode="9" 
d="M49 331v68q0 30 15 53.5t38.5 39t52.5 24t56 8.5h526q31 0 60.5 -9.5t52 -26.5t36 -42.5t13.5 -56.5v-253q0 -32 -14.5 -57t-37.5 -42.5t-52 -27t-58 -9.5h-688v137h620q42 0 62 15t25 44h-545q-32 0 -61 9.5t-51.5 26.5t-36 42t-13.5 57zM193 327h563v59h-563v-59z
M193 327l-2 1v-1h2z" />
    <glyph glyph-name="FL003Ah" unicode=":" horiz-adv-x="240" 
d="M191 138h-142v-138h142v138zM191 387h-142v-138h142v138z" />
    <glyph glyph-name="FL003Bh" unicode=";" horiz-adv-x="240" 
d="M191 138h-142v-212q27 0 53 6t45.5 16t31.5 24t12 30v136zM191 387h-142v-138h142v138z" />
    <glyph glyph-name="FL003Ch" unicode="&#x3c;" horiz-adv-x="433" 
d="M246 524l-219 -262l219 -262h160l-212 262l212 262h-160z" />
    <glyph glyph-name="FL003Dh" unicode="=" horiz-adv-x="619" 
d="M49 232h521v-131h-521v131zM49 424h521v-131h-521v131z" />
    <glyph glyph-name="FL003Eh" unicode="&#x3e;" horiz-adv-x="433" 
d="M187 524l219 -262l-219 -262h-160l212 262l-212 262h160z" />
    <glyph glyph-name="FL003Fh" unicode="?" 
d="M217 328v-131h533q29 0 56 8.5t47.5 24.5t33 37.5t12.5 47.5v74q0 31 -13.5 56.5t-36 42.5t-52 26.5t-60.5 9.5h-688v-137h708v-59h-540zM359 138h-142v-138h142v138z" />
    <glyph glyph-name="FL0040h" unicode="@" horiz-adv-x="1067" 
d="M811 350v-118h65v156q0 38 -20 58.5t-68 20.5h-509q-48 0 -68 -20.5t-20 -58.5v-255q0 -42 19.5 -61t67.5 -19h662v-134h-729q-32 0 -61 9.5t-51.5 26.5t-36 42t-13.5 57v410q0 31 14.5 56.5t37.5 43t52 27t58 9.5h645q29 0 58 -9.5t52 -27t37.5 -43t14.5 -56.5v-227
q0 -32 -13.5 -57t-36 -42t-52 -26.5t-60.5 -9.5h-518q-32 0 -56.5 17.5t-24.5 49.5v181q0 32 25.5 50t55.5 18h392q14 0 28.5 -4.5t26 -13.5t19 -21.5t7.5 -28.5zM637 298h-206q-24 0 -33 -8t-9 -27v-4q0 -21 8.5 -28.5t32.5 -7.5h207q24 0 33 8t9 28v4q0 19 -9 27t-33 8z
" />
    <glyph glyph-name="FL0041h" unicode="A" 
d="M757 197v-197h142v391q0 31 -14.5 56t-37.5 42t-52 26t-58 9h-525q-29 0 -58 -9t-52 -26t-37.5 -42t-14.5 -56v-4h707v-59h-708v-328h142v197h566z" />
    <glyph glyph-name="B" unicode="B" 
d="M49 0h688q31 0 60.5 9.5t52 26.5t36 42t13.5 57v63q0 7 -5 16.5t-11.5 18.5t-14 17t-12.5 12q12 10 27.5 29t15.5 35v63q0 31 -13.5 56.5t-36 42.5t-52 26.5t-60.5 9.5h-688v-137h708v-59h-708v-328zM191 197h566v-60h-566v60z" />
    <glyph glyph-name="C" unicode="C" 
d="M899 138h-621q-48 0 -67.5 19t-19.5 61v90q0 38 20 58.5t68 20.5h620v137h-688q-29 0 -58 -9.5t-52 -27t-37.5 -43t-14.5 -56.5v-253q0 -32 13.5 -57t36 -42t51.5 -26.5t61 -9.5h688v138z" />
    <glyph glyph-name="D" unicode="D" 
d="M899 135v253q0 31 -14.5 56.5t-37.5 43t-52 27t-58 9.5h-688v-137h620q48 0 68 -20.5t20 -58.5v-90q0 -40 -19.5 -60t-67.5 -20h-479v190h-142v-328h688q31 0 60.5 9.5t52 26.5t36 42t13.5 57z" />
    <glyph glyph-name="E" unicode="E" 
d="M49 0h850v138h-708v59h708v131h-850v-328zM899 387v137h-850v-137h850z" />
    <glyph glyph-name="F" unicode="F" 
d="M49 0h142v197h708v131h-850v-328zM899 387v137h-850v-137h850z" />
    <glyph glyph-name="G" unicode="G" 
d="M899 135v193h-142v-110q0 -40 -19.5 -60t-67.5 -20h-392q-48 0 -67.5 19t-19.5 61v90q0 38 20 58.5t68 20.5h620v137h-688q-29 0 -58 -9.5t-52 -27t-37.5 -43t-14.5 -56.5v-253q0 -32 13.5 -57t36 -42t51.5 -26.5t61 -9.5h526q31 0 60.5 9.5t52 26.5t36 42t13.5 57z" />
    <glyph glyph-name="h" unicode="H" 
d="M241 197h516v-197h142v524h-142v-196h-516v-131zM191 0v524h-142v-524h142z" />
    <glyph glyph-name="i" unicode="I" horiz-adv-x="241" 
d="M49 0h143v328h-143v-328zM192 387v137h-143v-137h143z" />
    <glyph glyph-name="J" unicode="J" 
d="M757 218q0 -40 -19.5 -60t-67.5 -20h-392q-48 0 -67.5 19t-19.5 61h-142v-83q0 -32 13.5 -57t36 -42t51.5 -26.5t61 -9.5h526q31 0 60.5 9.5t52 26.5t36 42t13.5 57v389h-142v-306z" />
    <glyph glyph-name="k" unicode="K" 
d="M191 0v524h-142v-524h142zM241 197h331l167 -197h160l-208 262l208 262h-160l-167 -196h-331v-131z" />
    <glyph glyph-name="L" unicode="L" 
d="M191 138v386h-142v-524h850v138h-708z" />
    <glyph glyph-name="FL004Dh" unicode="M" horiz-adv-x="1059" 
d="M254 524h-205v-137h140l296 -387h89l294 383v-383h142v524h-205l-275 -357zM49 328v-328h142v328h-142z" />
    <glyph glyph-name="N" unicode="N" 
d="M191 386h479q48 0 67.5 -19t19.5 -61v-306h142v389q0 31 -13.5 56.5t-36 42.5t-52 26.5t-60.5 9.5h-688v-524h142v386z" />
    <glyph glyph-name="O" unicode="O" 
d="M899 388q0 31 -14.5 56.5t-37.5 43t-52 27t-58 9.5h-526q-29 0 -58 -9.5t-52 -27t-37.5 -43t-14.5 -56.5v-253q0 -32 13.5 -57t36 -42t51.5 -26.5t61 -9.5h526q31 0 60.5 9.5t52 26.5t36 42t13.5 57v253zM669 387q48 0 68 -20.5t20 -58.5v-90q0 -40 -19.5 -60t-67.5 -20
h-392q-48 0 -67.5 19t-19.5 61v90q0 38 20 58.5t68 20.5h390z" />
    <glyph glyph-name="P" unicode="P" 
d="M191 0v197h559q29 0 56 8.5t47.5 24.5t33 37.5t12.5 47.5v74q0 31 -13.5 56.5t-36 42.5t-52 26.5t-60.5 9.5h-688v-137h708v-59h-708v-328h142z" />
    <glyph glyph-name="FL0051h" unicode="Q" 
d="M559 138v134h-142v-373h142v101h178q31 0 60.5 9.5t52 26.5t36 42t13.5 57v253q0 31 -14.5 56.5t-37.5 43t-52 27t-58 9.5h-526q-29 0 -58 -9.5t-52 -27t-37.5 -43t-14.5 -56.5v-253q0 -32 13.5 -57t36 -42t51.5 -26.5t61 -9.5h157v138h-90q-48 0 -67.5 19t-19.5 61v90
q0 38 20 58.5t68 20.5h390q48 0 68 -20.5t20 -58.5v-90q0 -40 -19.5 -60t-67.5 -20h-111z" />
    <glyph glyph-name="FL0052h" unicode="R" 
d="M191 0v197h386l165 -197h157l-156 197h7q29 0 56 8.5t47.5 24.5t33 37.5t12.5 47.5v74q0 31 -13.5 56.5t-36 42.5t-52 26.5t-60.5 9.5h-688v-137h708v-59h-708v-328h142z" />
    <glyph glyph-name="S" unicode="S" 
d="M757 197v-60h-708v-137h688q31 0 60.5 9.5t52 26.5t36 42t13.5 57v74q0 26 -12.5 47.5t-33 37.5t-47.5 24.5t-56 8.5h-559v60h708v137h-688q-32 0 -61 -9.5t-51.5 -26.5t-36 -42.5t-13.5 -56.5v-74q0 -26 12.5 -47.5t33 -37.5t47.5 -24.5t56 -8.5h559z" />
    <glyph glyph-name="T" unicode="T" 
d="M546 0v386h353v138h-850v-138h355v-386h142z" />
    <glyph glyph-name="U" unicode="U" 
d="M757 138h-479q-48 0 -67.5 19t-19.5 61v306h-142v-389q0 -32 13.5 -57t36 -42t51.5 -26.5t61 -9.5h688v524h-142v-386z" />
    <glyph glyph-name="FL0056h" unicode="V" horiz-adv-x="904" 
d="M193 524h-166l359 -524h133l358 524h-166l-259 -373z" />
    <glyph glyph-name="W" unicode="W" horiz-adv-x="1157" 
d="M1130 524h-161l-208 -335l-210 335h-161l110 -176l-102 -159l-210 335h-161l327 -524h88l137 219l138 -219h88z" />
    <glyph glyph-name="x" unicode="X" horiz-adv-x="904" 
d="M401 197h150l166 -197h160l-208 262l208 262h-160l-166 -196h-150v-131zM351 328l-164 196h-160l208 -262l-208 -262h160l164 197v131z" />
    <glyph glyph-name="Y" unicode="Y" 
d="M403 0h142v197h192q31 0 60.5 9.5t52 26.5t36 42t13.5 57v192h-142v-116q0 -40 -19.5 -60t-67.5 -20h-621q1 -31 14.5 -55t36 -41t51 -26t60.5 -9h192v-197zM191 388v136h-142v-136h142z" />
    <glyph glyph-name="Z" unicode="Z" 
d="M191 197v-60h708v-137h-850v209q0 26 12.5 48t33 37.5t47.5 24.5t56 9h701v-13q0 -26 -12.5 -47.5t-33 -37.5t-47.5 -24.5t-56 -8.5h-559zM49 387v137h850v-137h-850z" />
    <glyph glyph-name="FL005Bh" unicode="[" horiz-adv-x="453" 
d="M404 65h-213v392h213v137h-355v-667h355v138z" />
    <glyph glyph-name="FL005Ch" unicode="\" horiz-adv-x="576" 
d="M191 524l358 -524h-164l-358 524h164z" />
    <glyph glyph-name="FL005Dh" unicode="]" horiz-adv-x="453" 
d="M48 65h213v392h-213v137h355v-667h-355v138z" />
    <glyph glyph-name="FL0061h" unicode="^" horiz-adv-x="914" 
d="M415 328h247l225 -328h-162l-140 197h-255l-140 -197h-163l361 524h142l92 -137h-163z" />
    <glyph glyph-name="FL005Fh" unicode="_" horiz-adv-x="662" 
d="M49 96h564v-96h-564v96z" />
    <glyph glyph-name="FL0060h" unicode="`" horiz-adv-x="266" 
d="M81 456l-54 122h158l54 -122h-158z" />
    <glyph glyph-name="a" unicode="a" horiz-adv-x="914" 
d="M499 328h-247l-225 -328h162l140 197h255l140 -197h163l-361 524h-142l-92 -137h163z" />
    <glyph glyph-name="b" unicode="b" 
d="M49 0h688q31 0 60.5 9.5t52 26.5t36 42t13.5 57v63q0 7 -5 16.5t-11.5 18.5t-14 17t-12.5 12q12 10 27.5 29t15.5 35v63q0 31 -13.5 56.5t-36 42.5t-52 26.5t-60.5 9.5h-688v-137h708v-59h-708v-328zM191 197h566v-60h-566v60z" />
    <glyph glyph-name="c" unicode="c" 
d="M899 138h-621q-48 0 -67.5 19t-19.5 61v90q0 38 20 58.5t68 20.5h620v137h-688q-29 0 -58 -9.5t-52 -27t-37.5 -43t-14.5 -56.5v-253q0 -32 13.5 -57t36 -42t51.5 -26.5t61 -9.5h688v138z" />
    <glyph glyph-name="d" unicode="d" 
d="M899 135v253q0 31 -14.5 56.5t-37.5 43t-52 27t-58 9.5h-688v-137h620q48 0 68 -20.5t20 -58.5v-90q0 -40 -19.5 -60t-67.5 -20h-479v190h-142v-328h688q31 0 60.5 9.5t52 26.5t36 42t13.5 57z" />
    <glyph glyph-name="e" unicode="e" 
d="M49 135q0 -32 13.5 -57t36 -42t51.5 -26.5t61 -9.5h688v138h-708v59h708v131h-850v-193zM899 387v137h-688q-29 0 -58 -9t-52 -26t-37.5 -42t-14.5 -56v-4h850z" />
    <glyph glyph-name="f" unicode="f" 
d="M49 0h142v197h708v131h-850v-328zM899 387v137h-688q-29 0 -58 -9t-52 -26t-37.5 -42t-14.5 -56v-4h850z" />
    <glyph glyph-name="FL0067h" unicode="g" 
d="M899 193v-68q0 -30 -12 -53.5t-33.5 -39t-51 -24t-65.5 -8.5h-526q-32 0 -61 9.5t-51.5 26.5t-36 42t-13.5 57v253q0 31 14.5 56.5t37.5 43t52 27t58 9.5h688v-137h-620q-48 0 -68 -20.5t-20 -58.5v-90q0 -42 19.5 -61t67.5 -19h477v59h-429v131h411q31 0 60.5 -9.5
t52 -26.5t36 -42.5t13.5 -56.5zM755 197l2 -1v1h-2z" />
    <glyph glyph-name="H" unicode="h" 
d="M191 0v197h566v-197h142v524h-142v-196h-566v196h-142v-524h142z" />
    <glyph glyph-name="I" unicode="i" horiz-adv-x="241" 
d="M192 0v524h-143v-524h143z" />
    <glyph glyph-name="j" unicode="j" 
d="M757 218q0 -40 -19.5 -60t-67.5 -20h-392q-48 0 -67.5 19t-19.5 61h-142v-83q0 -32 13.5 -57t36 -42t51.5 -26.5t61 -9.5h526q31 0 60.5 9.5t52 26.5t36 42t13.5 57v389h-142v-306z" />
    <glyph glyph-name="K" unicode="k" 
d="M191 0v197h381l167 -197h160l-208 262l208 262h-160l-167 -196h-381v196h-142v-524h142z" />
    <glyph glyph-name="l" unicode="l" 
d="M278 138q-48 0 -67.5 19t-19.5 61v306h-142v-389q0 -32 13.5 -57t36 -42t51.5 -26.5t61 -9.5h688v138h-621z" />
    <glyph glyph-name="m" unicode="m" horiz-adv-x="1059" 
d="M254 524h-205v-137h140l296 -387h89l294 383v-383h142v524h-205l-275 -357zM49 328v-328h142v328h-142z" />
    <glyph glyph-name="n" unicode="n" 
d="M49 524v-137h140l541 -387h169v524h-142v-372l-526 372h-182zM49 0h142v328h-142v-328z" />
    <glyph glyph-name="o" unicode="o" 
d="M899 388q0 31 -14.5 56.5t-37.5 43t-52 27t-58 9.5h-526q-29 0 -58 -9.5t-52 -27t-37.5 -43t-14.5 -56.5v-253q0 -32 13.5 -57t36 -42t51.5 -26.5t61 -9.5h526q31 0 60.5 9.5t52 26.5t36 42t13.5 57v253zM669 387q48 0 68 -20.5t20 -58.5v-90q0 -40 -19.5 -60t-67.5 -20
h-392q-48 0 -67.5 19t-19.5 61v90q0 38 20 58.5t68 20.5h390z" />
    <glyph glyph-name="p" unicode="p" 
d="M191 0v197h559q29 0 56 8.5t47.5 24.5t33 37.5t12.5 47.5v74q0 31 -13.5 56.5t-36 42.5t-52 26.5t-60.5 9.5h-688v-137h708v-59h-708v-328h142z" />
    <glyph glyph-name="q" unicode="q" 
d="M559 138v134h-142v-373h142v101h178q31 0 60.5 9.5t52 26.5t36 42t13.5 57v253q0 31 -14.5 56.5t-37.5 43t-52 27t-58 9.5h-526q-29 0 -58 -9.5t-52 -27t-37.5 -43t-14.5 -56.5v-253q0 -32 13.5 -57t36 -42t51.5 -26.5t61 -9.5h157v138h-90q-48 0 -67.5 19t-19.5 61v90
q0 38 20 58.5t68 20.5h390q48 0 68 -20.5t20 -58.5v-90q0 -40 -19.5 -60t-67.5 -20h-111z" />
    <glyph glyph-name="r" unicode="r" 
d="M191 0v197h386l165 -197h157l-156 197h7q29 0 56 8.5t47.5 24.5t33 37.5t12.5 47.5v74q0 31 -13.5 56.5t-36 42.5t-52 26.5t-60.5 9.5h-688v-137h708v-59h-708v-328h142z" />
    <glyph glyph-name="s" unicode="s" 
d="M757 197v-60h-708v-137h688q31 0 60.5 9.5t52 26.5t36 42t13.5 57v74q0 26 -12.5 48t-33 37.5t-47.5 24.5t-56 9h-701v-13q0 -26 12.5 -47.5t33 -37.5t47.5 -24.5t56 -8.5h559zM899 387v137h-688q-32 0 -61 -9.5t-51.5 -27.5t-36 -43.5t-13.5 -56.5h850z" />
    <glyph glyph-name="t" unicode="t" 
d="M546 0v386h353v138h-850v-138h355v-386h142z" />
    <glyph glyph-name="u" unicode="u" 
d="M757 218q0 -40 -19.5 -60t-67.5 -20h-392q-48 0 -67.5 19t-19.5 61v306h-142v-389q0 -32 13.5 -57t36 -42t51.5 -26.5t61 -9.5h526q31 0 60.5 9.5t52 26.5t36 42t13.5 57v389h-142v-306z" />
    <glyph glyph-name="v" unicode="v" horiz-adv-x="904" 
d="M194 524h-167l359 -524h133l358 524h-166l-259 -373z" />
    <glyph glyph-name="w" unicode="w" horiz-adv-x="1059" 
d="M255 0l275 354l274 -354h206v524h-142v-384l-294 384h-89l-294 -385v385h-142v-524h206z" />
    <glyph glyph-name="X" unicode="x" horiz-adv-x="904" 
d="M352 328l-165 196h-160l208 -262l-208 -262h160l165 197h198l167 -197h160l-208 262l208 262h-160l-167 -196h-198z" />
    <glyph glyph-name="y" unicode="y" 
d="M545 0v197h192q31 0 60.5 9.5t52 26.5t36 42t13.5 57v192h-142v-115q0 -40 -19.5 -60t-67.5 -20h-392q-48 0 -67.5 19t-19.5 61v115h-142v-192q0 -32 13.5 -57t36 -42t51.5 -26.5t61 -9.5h192v-197h142z" />
    <glyph glyph-name="z" unicode="z" 
d="M899 138h-549l427 190h-286l-442 -196v-132h850v138zM49 387h850v137h-850v-137z" />
    <glyph glyph-name="M" unicode="{" 
d="M899 0v524h-213l-212 -339l-214 339h-211v-137h140l241 -387h88l239 384v-384h142zM49 328v-328h142v328h-142z" />
    <glyph glyph-name="FL00A6h" unicode="|" 
d="M49 0v138h355v248h-355v138h850v-138h-353v-248h353v-138h-850z" />
    <glyph glyph-name="FL007Dh" unicode="}" 
d="M757 0v197h-559q-29 0 -56 8.5t-47.5 24.5t-33 37.5t-12.5 47.5v74q0 31 13.5 56.5t36 42.5t51.5 26.5t61 9.5h688v-137h-708v-59h708v-328h-142z" />
    <glyph glyph-name="FL007Eh" unicode="~" horiz-adv-x="496" 
d="M232 194l-39 51l-44 -51h-122l121 137h102l44 -54l43 54h132l-115 -137h-122z" />
    <glyph glyph-name="FL007Fh" horiz-adv-x="286" 
 />
    <glyph glyph-name="FL00A1h" unicode="&#xa1;" horiz-adv-x="241" 
d="M49 0h143v328h-143v-328zM192 387v137h-143v-137h143z" />
    <glyph glyph-name="FL00A2h" unicode="&#xa2;" 
d="M596 634v-110h303v-137h-303v-249h303v-138h-303v-112h-142v112h-243q-32 0 -61 9.5t-51.5 26.5t-36 42t-13.5 57v253q0 31 14.5 56.5t37.5 43t52 27t58 9.5h243v110h142zM278 138h176v249h-175q-48 0 -68 -20.5t-20 -58.5v-90q0 -42 19.5 -61t67.5 -19z" />
    <glyph glyph-name="FL00A3h" unicode="&#xa3;" horiz-adv-x="997" 
d="M49 328h704v-131h-389v-59h584v-138h-899v138h173v59h-173v131zM544 524v-137h-322v4q0 31 14.5 56t37.5 42t52 26t58 9h160z" />
    <glyph glyph-name="FL00A4h" unicode="&#xa4;" horiz-adv-x="904" 
d="M234 468l-47 56h-160l84 -106q-21 -26 -21 -57v-199q0 -31 20 -57l-83 -105h160l47 56h435l48 -56h160l-84 105q9 12 14.5 26t5.5 31v199q0 32 -21 56l85 107h-160l-48 -56h-435zM598 341q42 0 58.5 -16t16.5 -46v-32q0 -32 -16 -47.5t-58 -15.5h-295q-42 0 -57.5 15
t-15.5 48v32q0 30 16 46t58 16h293z" />
    <glyph glyph-name="FL00A5h" unicode="&#xa5;" 
d="M212 160h191v37h-192q-32 0 -61 9.5t-51.5 26.5t-36 42t-13.5 57v192h142v-115q0 -42 19.5 -61t67.5 -19h392q48 0 67.5 20t19.5 60v115h142v-192q0 -32 -13.5 -57t-36 -42t-52 -26.5t-60.5 -9.5h-192v-37h190v-115h-190v-45h190v-115h-190v-45h-142v45h-191v115h191v45
h-191v115z" />
    <glyph glyph-name="FL007Ch" unicode="&#xa6;" horiz-adv-x="240" 
d="M191 634v-746h-142v746h142z" />
    <glyph glyph-name="FL00A7h" unicode="&#xa7;" 
d="M757 60h-559q-29 0 -56 8.5t-47.5 24.5t-33 37.5t-12.5 47.5v74q0 38 18 65q-18 25 -18 58v74q0 31 13.5 56.5t36 42.5t51.5 26.5t61 9.5h688v-137h-708v-60h559q29 0 56 -8.5t47.5 -24.5t33 -37.5t12.5 -47.5v-74q0 -38 -19 -66q19 -25 19 -57v-74q0 -32 -13.5 -57
t-36 -42t-52 -26.5t-60.5 -9.5h-688v137h708v60zM757 257h-566v-67h566v67z" />
    <glyph glyph-name="FL00A8h" unicode="&#xa8;" horiz-adv-x="515" 
d="M208 456v122h-159v-122h159zM307 456h159v122h-159v-122z" />
    <glyph glyph-name="FL00A9h" unicode="&#xa9;" horiz-adv-x="281" 
d="M141 597h-1q0 -2 44 -11q14 -9 21.5 -17t12.5 -18q14 -23 14 -45q0 -10 -4 -21t-10 -24q-8 -14 -29 -29.5t-48 -15.5q-11 0 -23 3.5t-23 8.5q-12 9 -18 15t-15 18q-13 22 -13 45q0 18 7.5 34.5t20.5 29t29.5 20t34.5 7.5zM141 583q-43 0 -66 -38q-10 -16 -10 -39
q0 -20 10 -36q8 -17 27 -29q10 -6 21 -7.5t16 -1.5h2q8 0 37 9q17 10 28 29t11 36v4q0 13 -6.5 26.5t-16.5 23.5t-23.5 16.5t-26.5 6.5h-3zM170 493l14 -5q-9 -34 -43 -34q-48 0 -48 52t48 52q34 0 41 -28l-15 -4q-9 19 -26 19q-32 0 -32 -39q0 -36 31 -36q22 0 30 23z" />
    <glyph glyph-name="FL005Eh" unicode="&#xaa;" 
d="M49 193v-68q0 -30 15 -53.5t38.5 -39t52.5 -24t56 -8.5h688v388q0 31 -14.5 56.5t-37.5 43t-52 27t-58 9.5h-688v-137h620q42 0 62 -15t25 -44h-545q-32 0 -61 -9.5t-51.5 -26.5t-36 -42.5t-13.5 -56.5zM193 197h563v-59h-563v59zM193 197l-2 -1v1h2z" />
    <glyph glyph-name="FL00ABh" unicode="&#xab;" horiz-adv-x="389" 
d="M340 300v142l-122 -115v-126l122 -114v141l-50 36zM171 300v142l-122 -115v-126l122 -114v141l-50 36z" />
    <glyph glyph-name="FL00ACh" unicode="&#xac;" horiz-adv-x="640" 
d="M49 328h542v-289h-131v158h-411v131z" />
    <glyph glyph-name="FL00ADh" unicode="&#xad;" horiz-adv-x="397" 
d="M49 328v-131h299v131h-299z" />
    <glyph glyph-name="registered" unicode="&#xae;" horiz-adv-x="281" 
d="M141 597q24 0 43 -13q21 -10 34.5 -33.5t13.5 -44.5q0 -10 -4 -21.5t-11 -24.5q-4 -10 -13.5 -18t-20.5 -14t-22 -9t-18 -3h-2q-51 0 -80 44q-12 21 -12 46q0 12 2.5 19t5.5 15q10 20 18.5 29.5t19.5 14.5q19 13 46 13zM141 582q-43 0 -66 -38q-11 -20 -11 -38l2.5 -10
t7.5 -27q0 -4 7 -10.5t17 -12.5t21 -10.5t19 -4.5h3q18 0 31 7t33 31q7 14 9.5 25.5l2.5 11.5l-1 3q0 14 -6 27t-16.5 23.5t-23.5 16.5t-26 6h-3zM101 456v98h32q21 0 26 -5q4 -2 6.5 -3.5t4.5 -3.5q6 -9 6 -14q0 -26 -29 -28q8 -4 11.5 -8.5t11.5 -16.5l12 -19h-20l-7 16
q-14 19 -18 21q-4 4 -11 4h-10v-41h-15zM116 509h19q14 0 19 4.5t5 12.5t-10 14h-33v-31z" />
    <glyph glyph-name="FL00AFh" unicode="&#xaf;" horiz-adv-x="662" 
d="M49 523h564v-96h-564v96z" />
    <glyph glyph-name="FL00B0h" unicode="&#xb0;" horiz-adv-x="257" 
d="M208 578v-122h-159v122h159zM93 497h71v40h-71v-40z" />
    <glyph glyph-name="FL00B1h" unicode="&#xb1;" horiz-adv-x="640" 
d="M386 485v-157h205v-131h-542v131h206v157h131zM49 131h542v-131h-542v131z" />
    <glyph glyph-name="FL00B2h" unicode="&#xb2;" horiz-adv-x="524" 
d="M135 413v-12h339v-84h-425v106q0 26 22.5 43t51.5 17h351v-7q0 -26 -22.5 -44.5t-52.5 -18.5h-264zM49 495v84h344q16 0 30.5 -7t26 -19t18.5 -27t7 -31h-426z" />
    <glyph glyph-name="FL00B3h" unicode="&#xb3;" horiz-adv-x="523" 
d="M49 413v70h425v-82q0 -16 -7 -31t-18 -27t-25.5 -19t-30.5 -7h-344v84h340v12h-340zM49 495v84h343q16 0 30.5 -7t26 -19t18.5 -27t7 -31h-425z" />
    <glyph glyph-name="FL00B4h" unicode="&#xb4;" horiz-adv-x="310" 
d="M207 456l54 122h-158l-54 -122h158z" />
    <glyph glyph-name="FL00B6h" unicode="&#xb5;" 
d="M211 197q-32 0 -61 9.5t-51.5 26.5t-36 42t-13.5 57v192h142v-115q0 -42 19.5 -61t67.5 -19h479v195h142v-389q0 -32 -13.5 -57t-36 -42t-52 -26.5t-60.5 -9.5h-688v138h708v59h-546z" />
    <glyph glyph-name="FL0192h" unicode="&#xb6;" horiz-adv-x="1118" 
d="M1091 279q0 18 -93 51q52 6 52 36v8l-142 36q27 1 27 36l-15 14h-166l6 39l-50 5l-142 -26l-3 7l3 19l-25 22l-128 -59l-64 37q-20 -8 -38.5 -25t-46.5 -51l-77 24h-4q-34 0 -34 -92l-82 8l-4 -38l40 -48l-78 -12l8 -31l78 -34l-44 -32q0 -26 21 -26l114 -20l-21 -22v-23
l182 -15l-8 -32l21 -12l176 25v-37l22 -8l134 64l44 -38l35 6l68 70l8 -2q20 -11 34 -16.5t31 -5.5q21 0 26 14l9 78l70 -15q21 9 21 28v5l-3 9l-40 50h62l14 28zM1068 270l-90 -7q60 -60 60 -78l-1 -1t-2 -6l-93 14l-7 -92l-90 27l-71 -79l-64 40l-142 -65l8 25l-22 25
l-176 -29l21 44l-195 7l57 36l-171 36l79 33l-120 58l90 5l-49 58l-4 28l89 -8l14 92q42 -27 69 -27q11 0 18 4l75 75l56 -39l127 58l15 -5l5 -39l184 25l-14 -45h189l-56 -39l162 -33l9 -13h-9l-70 -19l113 -54zM931 317l-30 5l-4 -88l21 -2zM920 196l-19 8l-15 -12l15 -14
zM867 203v114l-22 5l-4 -81l-70 76v-115l22 2v56q43 -57 74 -57zM750 204v84q-13 37 -35 37q-16 0 -17 -4q-42 -57 -52 -114h27q16 27 30 27q17 0 31 -27zM634 322l-24 -5l-13 -115l30 7zM573 198v114l-19 5l-5 -78l-73 73v-116l22 4v54q47 -56 75 -56zM462 279
q-9 38 -50 38h-15q-46 -28 -46 -103q10 -18 43 -18q5 0 9.5 0.5t11.5 1.5q36 0 47 81zM342 320q-91 -12 -91 -66v-8q0 -5 2 -7q12 -52 48 -52q6 0 10 2t15 4l-1 19q-6 -3 -24 -3q-26 0 -26 23q0 26 18 47q20 17 33 17q7 0 7 -1l1.5 -0.5t5.5 -2.5zM238 317l-23 -3l-11 -118
l26 9zM727 260h-39l23 38zM437 262q0 -11 -1.5 -17.5t-6.5 -16.5q-19 -10 -33 -10q-19 0 -19 28v8q13 36 35 36q13 0 24 -14q0 -5 0.5 -8.5t0.5 -5.5z" />
    <glyph glyph-name="FL00B7h" unicode="&#xb7;" horiz-adv-x="240" 
d="M191 330h-142v-138h142v138z" />
    <glyph glyph-name="FL00B8h" unicode="&#xb8;" horiz-adv-x="214" 
d="M49 2h116v-166h-240v113h124v53z" />
    <glyph glyph-name="FL00BAh" unicode="&#xb9;" horiz-adv-x="223" 
d="M88 317v178h-39v84h125v-262h-86z" />
    <glyph glyph-name="FL00B5h" unicode="&#xba;" horiz-adv-x="523" 
d="M474 511q0 16 -7.5 28.5t-19 21.5t-26 13.5t-28.5 4.5h-263q-30 0 -55.5 -18t-25.5 -50v-127q0 -32 24.5 -49.5t56.5 -17.5h263q32 0 56.5 17.5t24.5 49.5v127zM344 495q24 0 34 -10t10 -29v-15q0 -20 -10 -30t-34 -10h-166q-24 0 -33.5 9.5t-9.5 30.5v15q0 19 10 29
t34 10h165z" />
    <glyph glyph-name="FL00BBh" unicode="&#xbb;" horiz-adv-x="389" 
d="M48 300v142l122 -115v-126l-122 -114v141l50 36zM217 300v142l122 -115v-126l-122 -114v141l50 36z" />
    <glyph glyph-name="FL00BCh" unicode="&#xbc;" horiz-adv-x="921" 
d="M60 0l360 524h162l-360 -524h-162zM88 261v178h-39v84h125v-262h-86zM447 95v167h86v-95h253v95h86v-262h-86v95h-339z" />
    <glyph glyph-name="FL00BDh" unicode="&#xbd;" horiz-adv-x="922" 
d="M60 0l360 524h162l-360 -524h-162zM533 96v-12h339v-84h-425v106q0 26 22.5 43t51.5 17h351v-7q0 -26 -22.5 -44.5t-52.5 -18.5h-264zM447 178v84h344q16 0 30.5 -7t26 -19t18.5 -27t7 -31h-426zM88 261v178h-39v84h125v-262h-86z" />
    <glyph glyph-name="FL00BEh" unicode="&#xbe;" horiz-adv-x="1165" 
d="M304 0l360 524h162l-360 -524h-162zM691 95v167h86v-95h253v95h86v-262h-86v95h-339zM49 357v70h425v-82q0 -16 -7 -31t-18 -27t-25.5 -19t-30.5 -7h-344v84h340v12h-340zM49 439v84h343q16 0 30.5 -7t26 -19t18.5 -27t7 -31h-425z" />
    <glyph glyph-name="FL00BFh" unicode="&#xbf;" 
d="M731 196v131h-533q-29 0 -56 -8.5t-47.5 -24.5t-33 -37.5t-12.5 -47.5v-74q0 -32 13.5 -57t36 -42t51.5 -26.5t61 -9.5h688v137h-708v59h540zM589 386h142v138h-142v-138z" />
    <glyph glyph-name="FL00C0h" unicode="&#xc0;" 
d="M351 711l54 -122h158l-54 122h-158zM757 197v-197h142v391q0 31 -14.5 56t-37.5 42t-52 26t-58 9h-525q-29 0 -58 -9t-52 -26t-37.5 -42t-14.5 -56v-4h707v-59h-708v-328h142v197h566z" />
    <glyph glyph-name="FL00C1h" unicode="&#xc1;" 
d="M543 589l54 122h-158l-54 -122h158zM757 197v-197h142v391q0 31 -14.5 56t-37.5 42t-52 26t-58 9h-525q-29 0 -58 -9t-52 -26t-37.5 -42t-14.5 -56v-4h707v-59h-708v-328h142v197h566z" />
    <glyph glyph-name="FL00C2h" unicode="&#xc2;" 
d="M510 589h142l-115 122h-126l-114 -122h141l36 50zM757 197v-197h142v391q0 31 -14.5 56t-37.5 42t-52 26t-58 9h-525q-29 0 -58 -9t-52 -26t-37.5 -42t-14.5 -56v-4h707v-59h-708v-328h142v197h566z" />
    <glyph glyph-name="FL00C3h" unicode="&#xc3;" 
d="M431 633l39 -44h121l114 122h-131l-42 -49l-44 49h-101l-120 -122h121zM757 197v-197h142v391q0 31 -14.5 56t-37.5 42t-52 26t-58 9h-525q-29 0 -58 -9t-52 -26t-37.5 -42t-14.5 -56v-4h707v-59h-708v-328h142v197h566z" />
    <glyph glyph-name="FL00C4h" unicode="&#xc4;" 
d="M426 589v122h-159v-122h159zM522 589h159v122h-159v-122zM757 197v-197h142v391q0 31 -14.5 56t-37.5 42t-52 26t-58 9h-525q-29 0 -58 -9t-52 -26t-37.5 -42t-14.5 -56v-4h707v-59h-708v-328h142v197h566z" />
    <glyph glyph-name="FL00C5h" unicode="&#xc5;" 
d="M508 630h-71v40h71v-40zM552 589v122h-159v-122h159zM757 197v-197h142v391q0 31 -14.5 56t-37.5 42t-52 26t-58 9h-525q-29 0 -58 -9t-52 -26t-37.5 -42t-14.5 -56v-4h707v-59h-708v-328h142v197h566z" />
    <glyph glyph-name="FL00C6h" unicode="&#xc6;" horiz-adv-x="1656" 
d="M1607 387h-708v-59h708v-131h-708v-59h708v-138h-850v197h-566v-197h-142v328h708v59h-707v4q0 31 14.5 56t37.5 42t52 26t58 9h1395v-137z" />
    <glyph glyph-name="FL00C7h" unicode="&#xc7;" 
d="M278 138h621v-138h-293v-164h-240v113h124v51h-279q-32 0 -61 9.5t-51.5 26.5t-36 42t-13.5 57v253q0 31 14.5 56.5t37.5 43t52 27t58 9.5h688v-137h-620q-48 0 -68 -20.5t-20 -58.5v-90q0 -42 19.5 -61t67.5 -19z" />
    <glyph glyph-name="FL00C8h" unicode="&#xc8;" 
d="M351 711l54 -122h158l-54 122h-158zM49 -1l850 1v138h-708v59h708v131h-850v-329zM899 387v137h-850v-137h850z" />
    <glyph glyph-name="FL00C9h" unicode="&#xc9;" 
d="M543 589l54 122h-158l-54 -122h158zM49 -1l850 1v138h-708v59h708v131h-850v-329zM899 387v137h-850v-137h850z" />
    <glyph glyph-name="FL00CAh" unicode="&#xca;" 
d="M510 589h142l-115 122h-126l-114 -122h141l36 50zM49 -1l850 1v138h-708v59h708v131h-850v-329zM899 387v137h-850v-137h850z" />
    <glyph glyph-name="FL00CBh" unicode="&#xcb;" 
d="M426 589v122h-159v-122h159zM522 589h159v122h-159v-122zM49 -1l850 1v138h-708v59h708v131h-850v-329zM899 387v137h-850v-137h850z" />
    <glyph glyph-name="FL00CCh" unicode="&#xcc;" horiz-adv-x="241" 
d="M14 711l54 -122h158l-54 122h-158zM49 0h143v328h-143v-328zM192 387v137h-143v-137h143z" />
    <glyph glyph-name="FL00CDh" unicode="&#xcd;" horiz-adv-x="241" 
d="M174 589l54 122h-158l-54 -122h158zM49 0h143v328h-143v-328zM192 387v137h-143v-137h143z" />
    <glyph glyph-name="FL00CEh" unicode="&#xce;" horiz-adv-x="241" 
d="M157 589h142l-115 122h-126l-114 -122h141l36 50zM49 0h143v328h-143v-328zM192 387v137h-143v-137h143z" />
    <glyph glyph-name="FL00CFh" unicode="&#xcf;" horiz-adv-x="241" 
d="M73 589v122h-159v-122h159zM169 589h159v122h-159v-122zM49 0h143v328h-143v-328zM192 387v137h-143v-137h143z" />
    <glyph glyph-name="FL00D0h" unicode="&#xd0;" horiz-adv-x="1115" 
d="M49 328h557v-131h-248v-59h479q48 0 67.5 20t19.5 60v90q0 38 -20 58.5t-68 20.5h-620v137h688q29 0 58 -9.5t52 -27t37.5 -43t14.5 -56.5v-253q0 -32 -13.5 -57t-36 -42t-52 -26.5t-60.5 -9.5h-688v197h-167v131z" />
    <glyph glyph-name="FL00D1h" unicode="&#xd1;" 
d="M191 386h479q48 0 67.5 -19t19.5 -61v-306h142v389q0 31 -13.5 56.5t-36 42.5t-52 26.5t-60.5 9.5h-688v-524h142v386zM430 633l39 -44h121l114 122h-131l-42 -49l-44 49h-101l-120 -122h121z" />
    <glyph glyph-name="FL00D2h" unicode="&#xd2;" 
d="M351 711l54 -122h158l-54 122h-158zM899 388q0 31 -14.5 56.5t-37.5 43t-52 27t-58 9.5h-526q-29 0 -58 -9.5t-52 -27t-37.5 -43t-14.5 -56.5v-253q0 -32 13.5 -57t36 -42t51.5 -26.5t61 -9.5h526q31 0 60.5 9.5t52 26.5t36 42t13.5 57v253zM669 387q48 0 68 -20.5
t20 -58.5v-90q0 -40 -19.5 -60t-67.5 -20h-392q-48 0 -67.5 19t-19.5 61v90q0 38 20 58.5t68 20.5h390z" />
    <glyph glyph-name="FL00D3h" unicode="&#xd3;" 
d="M899 388q0 31 -14.5 56.5t-37.5 43t-52 27t-58 9.5h-526q-29 0 -58 -9.5t-52 -27t-37.5 -43t-14.5 -56.5v-253q0 -32 13.5 -57t36 -42t51.5 -26.5t61 -9.5h526q31 0 60.5 9.5t52 26.5t36 42t13.5 57v253zM669 387q48 0 68 -20.5t20 -58.5v-90q0 -40 -19.5 -60t-67.5 -20
h-392q-48 0 -67.5 19t-19.5 61v90q0 38 20 58.5t68 20.5h390zM543 589l54 122h-158l-54 -122h158z" />
    <glyph glyph-name="FL00D4h" unicode="&#xd4;" 
d="M899 388q0 31 -14.5 56.5t-37.5 43t-52 27t-58 9.5h-526q-29 0 -58 -9.5t-52 -27t-37.5 -43t-14.5 -56.5v-253q0 -32 13.5 -57t36 -42t51.5 -26.5t61 -9.5h526q31 0 60.5 9.5t52 26.5t36 42t13.5 57v253zM669 387q48 0 68 -20.5t20 -58.5v-90q0 -40 -19.5 -60t-67.5 -20
h-392q-48 0 -67.5 19t-19.5 61v90q0 38 20 58.5t68 20.5h390zM510 589h142l-115 122h-126l-114 -122h141l36 50z" />
    <glyph glyph-name="FL00D5h" unicode="&#xd5;" 
d="M431 633l39 -44h121l114 122h-131l-42 -49l-44 49h-101l-120 -122h121zM899 388q0 31 -14.5 56.5t-37.5 43t-52 27t-58 9.5h-526q-29 0 -58 -9.5t-52 -27t-37.5 -43t-14.5 -56.5v-253q0 -32 13.5 -57t36 -42t51.5 -26.5t61 -9.5h526q31 0 60.5 9.5t52 26.5t36 42t13.5 57
v253zM669 387q48 0 68 -20.5t20 -58.5v-90q0 -40 -19.5 -60t-67.5 -20h-392q-48 0 -67.5 19t-19.5 61v90q0 38 20 58.5t68 20.5h390z" />
    <glyph glyph-name="FL00D6h" unicode="&#xd6;" 
d="M899 388q0 31 -14.5 56.5t-37.5 43t-52 27t-58 9.5h-526q-29 0 -58 -9.5t-52 -27t-37.5 -43t-14.5 -56.5v-253q0 -32 13.5 -57t36 -42t51.5 -26.5t61 -9.5h526q31 0 60.5 9.5t52 26.5t36 42t13.5 57v253zM669 387q48 0 68 -20.5t20 -58.5v-90q0 -40 -19.5 -60t-67.5 -20
h-392q-48 0 -67.5 19t-19.5 61v90q0 38 20 58.5t68 20.5h390zM426 589v122h-159v-122h159zM522 589h159v122h-159v-122z" />
    <glyph glyph-name="FL00D7h" unicode="&#xd7;" horiz-adv-x="530" 
d="M503 117l-92 -93l-146 146l-146 -146l-92 93l145 145l-145 146l93 92l145 -145l145 145l93 -92l-146 -146z" />
    <glyph glyph-name="FL00D8h" unicode="&#xd8;" 
d="M899 388v-253q0 -32 -13.5 -57t-36 -42t-52 -26.5t-60.5 -9.5h-526q-32 0 -61 9.5t-51.5 26.5t-36 42t-13.5 57v253q0 31 14.5 56.5t37.5 43t52 27t58 9.5h526q29 0 58 -9.5t52 -27t37.5 -43t14.5 -56.5zM477 387h-198q-48 0 -68 -20.5t-20 -58.5v-90q0 -42 19.5 -61
t67.5 -19h29zM669 387h-28l-170 -249h199q48 0 67.5 20t19.5 60v90q0 38 -20 58.5t-68 20.5z" />
    <glyph glyph-name="FL00D9h" unicode="&#xd9;" 
d="M351 711l54 -122h158l-54 122h-158zM757 138h-479q-48 0 -67.5 19t-19.5 61v306h-142v-389q0 -32 13.5 -57t36 -42t51.5 -26.5t61 -9.5h688v524h-142v-386z" />
    <glyph glyph-name="FL00DAh" unicode="&#xda;" 
d="M543 589l54 122h-158l-54 -122h158zM757 138h-479q-48 0 -67.5 19t-19.5 61v306h-142v-389q0 -32 13.5 -57t36 -42t51.5 -26.5t61 -9.5h688v524h-142v-386z" />
    <glyph glyph-name="FL00DBh" unicode="&#xdb;" 
d="M510 589h142l-115 122h-126l-114 -122h141l36 50zM757 138h-479q-48 0 -67.5 19t-19.5 61v306h-142v-389q0 -32 13.5 -57t36 -42t51.5 -26.5t61 -9.5h688v524h-142v-386z" />
    <glyph glyph-name="FL00DCh" unicode="&#xdc;" 
d="M426 589v122h-159v-122h159zM522 589h159v122h-159v-122zM757 138h-479q-48 0 -67.5 19t-19.5 61v306h-142v-389q0 -32 13.5 -57t36 -42t51.5 -26.5t61 -9.5h688v524h-142v-386z" />
    <glyph glyph-name="FL00DDh" unicode="&#xdd;" 
d="M543 589l54 122h-158l-54 -122h158zM403 0h142v197h192q31 0 60.5 9.5t52 26.5t36 42t13.5 57v192h-142v-116q0 -40 -19.5 -60t-67.5 -20h-621q1 -31 14.5 -55t36 -41t51 -26t60.5 -9h192v-197zM191 388v136h-142v-136h142z" />
    <glyph glyph-name="FL00DEh" unicode="&#xde;" 
d="M191 0h-142v231h708v59h-708v234h142v-97h546q31 0 60.5 -9.5t52 -26.5t36 -42.5t13.5 -56.5v-74q0 -26 -12.5 -47.5t-33 -37.5t-47.5 -24.5t-56 -8.5h-559v-100z" />
    <glyph glyph-name="FL00DFh" unicode="&#xdf;" 
d="M49 -157v681h688q31 0 60.5 -9.5t52 -26.5t36 -42.5t13.5 -56.5v-63q0 -16 -15.5 -35t-27.5 -29q5 -4 12.5 -12t14 -17t11.5 -18.5t5 -16.5v-63q0 -32 -13.5 -57t-36 -42t-52 -26.5t-60.5 -9.5h-419v137h439v61h-440v130h440v59h-566v-544h-142z" />
    <glyph glyph-name="FL00E0h" unicode="&#xe0;" horiz-adv-x="914" 
d="M499 328h-247l-225 -328h162l140 197h255l140 -197h163l-361 524h-142l-92 -137h163zM349 711l54 -122h158l-54 122h-158z" />
    <glyph glyph-name="FL00E1h" unicode="&#xe1;" horiz-adv-x="914" 
d="M499 328h-247l-225 -328h162l140 197h255l140 -197h163l-361 524h-142l-92 -137h163zM511 589l54 122h-158l-54 -122h158z" />
    <glyph glyph-name="FL00E2h" unicode="&#xe2;" horiz-adv-x="914" 
d="M499 328h-247l-225 -328h162l140 197h255l140 -197h163l-361 524h-142l-92 -137h163zM492 589h142l-115 122h-126l-114 -122h141l36 50z" />
    <glyph glyph-name="FL00E3h" unicode="&#xe3;" horiz-adv-x="914" 
d="M499 328h-247l-225 -328h162l140 197h255l140 -197h163l-361 524h-142l-92 -137h161zM405 633l39 -44h121l114 122h-131l-42 -49l-44 49h-101l-120 -122h121z" />
    <glyph glyph-name="FL00E4h" unicode="&#xe4;" horiz-adv-x="914" 
d="M499 328h-247l-225 -328h162l140 197h255l140 -197h163l-361 524h-142l-92 -137h163zM409 589v122h-159v-122h159zM505 589h159v122h-159v-122z" />
    <glyph glyph-name="FL00E5h" unicode="&#xe5;" horiz-adv-x="914" 
d="M499 328h-247l-225 -328h162l140 197h255l140 -197h163l-361 524h-142l-92 -137h163zM492 630h-71v40h71v-40zM536 589v122h-159v-122h159z" />
    <glyph glyph-name="FL00E6h" unicode="&#xe6;" horiz-adv-x="1618" 
d="M499 328l-44 59h-163l92 137h142l193 -280v84h850v-131h-708v-59h708v-138h-845l-140 197h-255l-140 -197h-162l225 328h247zM1569 387h-850v4q0 31 14.5 56t37.5 42t52 26t58 9h688v-137z" />
    <glyph glyph-name="FL00E7h" unicode="&#xe7;" 
d="M278 138h621v-138h-293v-164h-240v113h124v51h-279q-32 0 -61 9.5t-51.5 26.5t-36 42t-13.5 57v253q0 31 14.5 56.5t37.5 43t52 27t58 9.5h688v-137h-620q-48 0 -68 -20.5t-20 -58.5v-90q0 -42 19.5 -61t67.5 -19z" />
    <glyph glyph-name="FL00E8h" unicode="&#xe8;" 
d="M360 711l54 -122h158l-54 122h-158zM49 135q0 -32 13.5 -57t36 -42t51.5 -26.5t61 -9.5h688v138h-708v59h708v131h-850v-193zM899 387v137h-688q-29 0 -58 -9t-52 -26t-37.5 -42t-14.5 -56v-4h850z" />
    <glyph glyph-name="FL00E9h" unicode="&#xe9;" 
d="M552 589l54 122h-158l-54 -122h158zM49 135q0 -32 13.5 -57t36 -42t51.5 -26.5t61 -9.5h688v138h-708v59h708v131h-850v-193zM899 387v137h-688q-29 0 -58 -9t-52 -26t-37.5 -42t-14.5 -56v-4h850z" />
    <glyph glyph-name="FL00EAh" unicode="&#xea;" 
d="M519 589h142l-115 122h-126l-114 -122h141l36 50zM49 135q0 -32 13.5 -57t36 -42t51.5 -26.5t61 -9.5h688v138h-708v59h708v131h-850v-193zM899 387v137h-688q-29 0 -58 -9t-52 -26t-37.5 -42t-14.5 -56v-4h850z" />
    <glyph glyph-name="FL00EBh" unicode="&#xeb;" 
d="M435 589v122h-159v-122h159zM531 589h159v122h-159v-122zM49 135q0 -32 13.5 -57t36 -42t51.5 -26.5t61 -9.5h688v138h-708v59h708v131h-850v-193zM899 387v137h-688q-29 0 -58 -9t-52 -26t-37.5 -42t-14.5 -56v-4h850z" />
    <glyph glyph-name="FL00ECh" unicode="&#xec;" horiz-adv-x="241" 
d="M192 0v524h-143v-524h143zM14 711l54 -122h158l-54 122h-158z" />
    <glyph glyph-name="FL00EDh" unicode="&#xed;" horiz-adv-x="241" 
d="M192 0v524h-143v-524h143zM174 589l54 122h-158l-54 -122h158z" />
    <glyph glyph-name="FL00EEh" unicode="&#xee;" horiz-adv-x="241" 
d="M192 0v524h-143v-524h143zM157 589h142l-115 122h-126l-114 -122h141l36 50z" />
    <glyph glyph-name="FL00EFh" unicode="&#xef;" horiz-adv-x="241" 
d="M192 0v524h-143v-524h143zM73 589v122h-159v-122h159zM169 589h159v122h-159v-122z" />
    <glyph glyph-name="FL00F0h" unicode="&#xf0;" 
d="M542 353h-142v34h-351v137h351v45h142v-45h195q29 0 58 -9.5t52 -27t37.5 -43t14.5 -56.5v-253q0 -32 -13.5 -57t-36 -42t-52 -26.5t-60.5 -9.5h-526q-27 0 -56 8.5t-52.5 24t-38.5 39t-15 53.5v68q0 31 13.5 56.5t36 42.5t51.5 26.5t61 9.5h545q-5 29 -25 44t-62 15
h-127v-34zM193 197v-59h563v59h-563zM193 197h-2v-1z" />
    <glyph glyph-name="FL00F1h" unicode="&#xf1;" 
d="M49 524v-137h140l542 -387h168v524h-142v-372l-527 372h-181zM49 0h142v328h-142v-328zM434 633l39 -44h121l114 122h-131l-42 -49l-44 49h-101l-120 -122h121z" />
    <glyph glyph-name="FL00F2h" unicode="&#xf2;" 
d="M351 711l54 -122h158l-54 122h-158zM899 388q0 31 -14.5 56.5t-37.5 43t-52 27t-58 9.5h-526q-29 0 -58 -9.5t-52 -27t-37.5 -43t-14.5 -56.5v-253q0 -32 13.5 -57t36 -42t51.5 -26.5t61 -9.5h526q31 0 60.5 9.5t52 26.5t36 42t13.5 57v253zM669 387q48 0 68 -20.5
t20 -58.5v-90q0 -40 -19.5 -60t-67.5 -20h-392q-48 0 -67.5 19t-19.5 61v90q0 38 20 58.5t68 20.5h390z" />
    <glyph glyph-name="FL00F3h" unicode="&#xf3;" 
d="M899 388q0 31 -14.5 56.5t-37.5 43t-52 27t-58 9.5h-526q-29 0 -58 -9.5t-52 -27t-37.5 -43t-14.5 -56.5v-253q0 -32 13.5 -57t36 -42t51.5 -26.5t61 -9.5h526q31 0 60.5 9.5t52 26.5t36 42t13.5 57v253zM669 387q48 0 68 -20.5t20 -58.5v-90q0 -40 -19.5 -60t-67.5 -20
h-392q-48 0 -67.5 19t-19.5 61v90q0 38 20 58.5t68 20.5h390zM543 589l54 122h-158l-54 -122h158z" />
    <glyph glyph-name="FL00F4h" unicode="&#xf4;" 
d="M899 388q0 31 -14.5 56.5t-37.5 43t-52 27t-58 9.5h-526q-29 0 -58 -9.5t-52 -27t-37.5 -43t-14.5 -56.5v-253q0 -32 13.5 -57t36 -42t51.5 -26.5t61 -9.5h526q31 0 60.5 9.5t52 26.5t36 42t13.5 57v253zM669 387q48 0 68 -20.5t20 -58.5v-90q0 -40 -19.5 -60t-67.5 -20
h-392q-48 0 -67.5 19t-19.5 61v90q0 38 20 58.5t68 20.5h390zM510 589h142l-115 122h-126l-114 -122h141l36 50z" />
    <glyph glyph-name="FL00F5h" unicode="&#xf5;" 
d="M431 633l39 -44h121l114 122h-131l-42 -49l-44 49h-101l-120 -122h121zM899 388q0 31 -14.5 56.5t-37.5 43t-52 27t-58 9.5h-526q-29 0 -58 -9.5t-52 -27t-37.5 -43t-14.5 -56.5v-253q0 -32 13.5 -57t36 -42t51.5 -26.5t61 -9.5h526q31 0 60.5 9.5t52 26.5t36 42t13.5 57
v253zM669 387q48 0 68 -20.5t20 -58.5v-90q0 -40 -19.5 -60t-67.5 -20h-392q-48 0 -67.5 19t-19.5 61v90q0 38 20 58.5t68 20.5h390z" />
    <glyph glyph-name="FL00F6h" unicode="&#xf6;" 
d="M899 388q0 31 -14.5 56.5t-37.5 43t-52 27t-58 9.5h-526q-29 0 -58 -9.5t-52 -27t-37.5 -43t-14.5 -56.5v-253q0 -32 13.5 -57t36 -42t51.5 -26.5t61 -9.5h526q31 0 60.5 9.5t52 26.5t36 42t13.5 57v253zM669 387q48 0 68 -20.5t20 -58.5v-90q0 -40 -19.5 -60t-67.5 -20
h-392q-48 0 -67.5 19t-19.5 61v90q0 38 20 58.5t68 20.5h390zM426 589v122h-159v-122h159zM522 589h159v122h-159v-122z" />
    <glyph glyph-name="FL00F7h" unicode="&#xf7;" horiz-adv-x="645" 
d="M596 325h-547v-125h547v125zM402 370v122h-159v-122h159zM243 33h159v122h-159v-122z" />
    <glyph glyph-name="FL00F8h" unicode="&#xf8;" 
d="M899 388v-253q0 -32 -13.5 -57t-36 -42t-52 -26.5t-60.5 -9.5h-526q-32 0 -61 9.5t-51.5 26.5t-36 42t-13.5 57v253q0 31 14.5 56.5t37.5 43t52 27t58 9.5h526q29 0 58 -9.5t52 -27t37.5 -43t14.5 -56.5zM477 387h-198q-48 0 -68 -20.5t-20 -58.5v-90q0 -42 19.5 -61
t67.5 -19h29zM669 387h-28l-170 -249h199q48 0 67.5 20t19.5 60v90q0 38 -20 58.5t-68 20.5z" />
    <glyph glyph-name="FL00F9h" unicode="&#xf9;" 
d="M351 711l54 -122h158l-54 122h-158zM757 218q0 -40 -19.5 -60t-67.5 -20h-392q-48 0 -67.5 19t-19.5 61v306h-142v-389q0 -32 13.5 -57t36 -42t51.5 -26.5t61 -9.5h526q31 0 60.5 9.5t52 26.5t36 42t13.5 57v389h-142v-306z" />
    <glyph glyph-name="FL00FAh" unicode="&#xfa;" 
d="M543 589l54 122h-158l-54 -122h158zM757 218q0 -40 -19.5 -60t-67.5 -20h-392q-48 0 -67.5 19t-19.5 61v306h-142v-389q0 -32 13.5 -57t36 -42t51.5 -26.5t61 -9.5h526q31 0 60.5 9.5t52 26.5t36 42t13.5 57v389h-142v-306z" />
    <glyph glyph-name="FL00FBh" unicode="&#xfb;" 
d="M510 589h142l-115 122h-126l-114 -122h141l36 50zM757 218q0 -40 -19.5 -60t-67.5 -20h-392q-48 0 -67.5 19t-19.5 61v306h-142v-389q0 -32 13.5 -57t36 -42t51.5 -26.5t61 -9.5h526q31 0 60.5 9.5t52 26.5t36 42t13.5 57v389h-142v-306z" />
    <glyph glyph-name="FL00FCh" unicode="&#xfc;" 
d="M426 589v122h-159v-122h159zM522 589h159v122h-159v-122zM757 218q0 -40 -19.5 -60t-67.5 -20h-392q-48 0 -67.5 19t-19.5 61v306h-142v-389q0 -32 13.5 -57t36 -42t51.5 -26.5t61 -9.5h526q31 0 60.5 9.5t52 26.5t36 42t13.5 57v389h-142v-306z" />
    <glyph glyph-name="FL00FDh" unicode="&#xfd;" 
d="M545 0v197h192q31 0 60.5 9.5t52 26.5t36 42t13.5 57v192h-142v-115q0 -40 -19.5 -60t-67.5 -20h-392q-48 0 -67.5 19t-19.5 61v115h-142v-192q0 -32 13.5 -57t36 -42t51.5 -26.5t61 -9.5h192v-197h142zM543 589l54 122h-158l-54 -122h158z" />
    <glyph glyph-name="FL00FEh" unicode="&#xfe;" 
d="M191 0h-142v231h708v59h-708v234h142v-97h546q31 0 60.5 -9.5t52 -26.5t36 -42.5t13.5 -56.5v-74q0 -26 -12.5 -47.5t-33 -37.5t-47.5 -24.5t-56 -8.5h-559v-100z" />
    <glyph glyph-name="FL0178h" unicode="&#xff;" 
d="M545 0v197h192q31 0 60.5 9.5t52 26.5t36 42t13.5 57v192h-142v-115q0 -40 -19.5 -60t-67.5 -20h-392q-48 0 -67.5 19t-19.5 61v115h-142v-192q0 -32 13.5 -57t36 -42t51.5 -26.5t61 -9.5h192v-197h142zM426 589v122h-159v-122h159zM522 589h159v122h-159v-122z" />
    <glyph glyph-name="FL0152h" unicode="&#x152;" horiz-adv-x="1625" 
d="M1576 387h-1297q-48 0 -68 -20.5t-20 -58.5v-90q0 -42 19.5 -61t67.5 -19h448v190h850v-131h-708v-59h708v-138h-1365q-32 0 -61 9.5t-51.5 26.5t-36 42t-13.5 57v253q0 31 14.5 56.5t37.5 43t52 27t58 9.5h1365v-137z" />
    <glyph glyph-name="FL0153h" unicode="&#x153;" horiz-adv-x="1625" 
d="M1576 387h-1297q-48 0 -68 -20.5t-20 -58.5v-90q0 -42 19.5 -61t67.5 -19h448v190h850v-131h-708v-59h708v-138h-1365q-32 0 -61 9.5t-51.5 26.5t-36 42t-13.5 57v253q0 31 14.5 56.5t37.5 43t52 27t58 9.5h1365v-137z" />
    <glyph glyph-name="FL0160h" unicode="&#x160;" 
d="M757 197v-60h-708v-137h688q31 0 60.5 9.5t52 26.5t36 42t13.5 57v74q0 26 -12.5 47.5t-33 37.5t-47.5 24.5t-56 8.5h-559v60h708v137h-688q-32 0 -61 -9.5t-51.5 -26.5t-36 -42.5t-13.5 -56.5v-74q0 -26 12.5 -47.5t33 -37.5t47.5 -24.5t56 -8.5h559zM438 711h-142
l115 -122h126l114 122h-141l-36 -50z" />
    <glyph glyph-name="FL0161h" unicode="&#x161;" 
d="M438 711h-142l115 -122h126l114 122h-141l-36 -50zM757 197v-60h-708v-137h688q31 0 60.5 9.5t52 26.5t36 42t13.5 57v74q0 26 -12.5 48t-33 37.5t-47.5 24.5t-56 9h-701v-13q0 -26 12.5 -47.5t33 -37.5t47.5 -24.5t56 -8.5h559zM899 387v137h-688q-32 0 -61 -9.5
t-51.5 -27.5t-36 -43.5t-13.5 -56.5h850z" />
    <glyph glyph-name="FL00FFh" unicode="&#x178;" 
d="M426 589v122h-159v-122h159zM522 589h159v122h-159v-122zM403 0h142v197h192q31 0 60.5 9.5t52 26.5t36 42t13.5 57v192h-142v-116q0 -40 -19.5 -60t-67.5 -20h-621q1 -31 14.5 -55t36 -41t51 -26t60.5 -9h192v-197zM191 388v136h-142v-136h142z" />
    <glyph glyph-name="FL017Dh" unicode="&#x17d;" 
d="M49 524v-137h850v137h-850zM191 137v60h559q29 0 56 8.5t47.5 24.5t33 37.5t12.5 47.5v13h-701q-29 0 -56 -9t-47.5 -24.5t-33 -37.5t-12.5 -48v-209h850v137h-708zM437 711h-142l115 -122h126l114 122h-141l-36 -50z" />
    <glyph glyph-name="FL017Eh" unicode="&#x17e;" 
d="M437 711h-142l115 -122h126l114 122h-141l-36 -50zM899 138h-549l427 190h-286l-442 -196v-132h850v138zM49 387h850v137h-850v-137z" />
    <glyph glyph-name="FL0193h" unicode="&#x192;" 
d="M49 0v524h850v-137h-708v-59h708v-131h-708v-197h-142z" />
    <glyph glyph-name="FL02C6h" unicode="&#x2c6;" horiz-adv-x="453" 
d="M262 455h142l-115 122h-126l-114 -122h141l36 50z" />
    <glyph glyph-name="FL02DCh" unicode="&#x2dc;" horiz-adv-x="536" 
d="M252 455l-39 46l-43 -46h-121l120 124h101l44 -49l42 49h131l-114 -124h-121z" />
    <glyph glyph-name="FL2013h" unicode="&#x2013;" horiz-adv-x="544" 
d="M49 328v-131h446v131h-446z" />
    <glyph glyph-name="FL2014h" unicode="&#x2014;" horiz-adv-x="640" 
d="M49 328h542v-131h-542v131z" />
    <glyph glyph-name="FL2018h" unicode="&#x2018;" horiz-adv-x="240" 
d="M49 312h142v212q-30 0 -56 -6t-45 -16t-30 -24t-11 -30v-136z" />
    <glyph glyph-name="FL2019h" unicode="&#x2019;" horiz-adv-x="240" 
d="M191 524h-142v-212q30 0 56 6t45 16t30 24t11 30v136z" />
    <glyph glyph-name="FL201Ah" unicode="&#x201a;" horiz-adv-x="240" 
d="M191 138h-142v-212q27 0 53 6t45.5 16t31.5 24t12 30v136z" />
    <glyph glyph-name="FL201Ch" unicode="&#x201c;" horiz-adv-x="432" 
d="M49 312h142v212q-30 0 -56 -6t-45 -16t-30 -24t-11 -30v-136zM241 312h142v212q-30 0 -56 -6t-45 -16t-30 -24t-11 -30v-136z" />
    <glyph glyph-name="FL201Dh" unicode="&#x201d;" horiz-adv-x="432" 
d="M383 524h-142v-212q30 0 56 6t45 16t30 24t11 30v136zM191 524h-142v-212q30 0 56 6t45 16t30 24t11 30v136z" />
    <glyph glyph-name="FL201Eh" unicode="&#x201e;" horiz-adv-x="437" 
d="M388 138h-142v-212q27 0 53 6t45.5 16t31.5 24t12 30v136zM191 138h-142v-212q27 0 53 6t45.5 16t31.5 24t12 30v136z" />
    <glyph glyph-name="FL2020h" unicode="&#x2020;" horiz-adv-x="611" 
d="M49 430h185v94h143v-94h185v-131h-185v-299h-143v299h-185v131z" />
    <glyph glyph-name="FL2021h" unicode="&#x2021;" horiz-adv-x="611" 
d="M49 430h185v94h143v-94h185v-131h-185v-73h185v-131h-185v-95h-143v95h-185v131h185v73h-185v131z" />
    <glyph glyph-name="FL2022h" unicode="&#x2022;" 
d="M899 388q0 31 -14.5 56.5t-37.5 43t-52 27t-58 9.5h-526q-29 0 -58 -9.5t-52 -27t-37.5 -43t-14.5 -56.5v-253q0 -32 13.5 -57t36 -42t51.5 -26.5t61 -9.5h526q31 0 60.5 9.5t52 26.5t36 42t13.5 57v253z" />
    <glyph glyph-name="FL2026h" unicode="&#x2026;" horiz-adv-x="688" 
d="M639 138h-142v-138h142v138zM415 138h-142v-138h142v138zM191 138h-142v-138h142v138z" />
    <glyph glyph-name="FL2030h" unicode="&#x2030;" horiz-adv-x="1628" 
d="M678 524l-360 -524h162l360 524h-162zM1108 194q0 16 -7.5 28.5t-19 21.5t-26 13.5t-28.5 4.5h-263q-30 0 -55.5 -18t-25.5 -50v-127q0 -32 24.5 -49.5t56.5 -17.5h263q32 0 56.5 17.5t24.5 49.5v127zM974 172q24 0 33 -8t9 -27v-11q0 -20 -9 -28t-33 -8h-158
q-24 0 -32.5 7.5t-8.5 28.5v11q0 19 9 27t33 8h157zM474 455q0 16 -7.5 28.5t-19 21.5t-26 13.5t-28.5 4.5h-263q-30 0 -55.5 -18t-25.5 -50v-127q0 -32 24.5 -49.5t56.5 -17.5h263q32 0 56.5 17.5t24.5 49.5v127zM340 433q24 0 33 -8t9 -27v-11q0 -20 -9 -28t-33 -8h-158
q-24 0 -32.5 7.5t-8.5 28.5v11q0 19 9 27t33 8h157zM1579 194q0 16 -7.5 28.5t-19 21.5t-26 13.5t-28.5 4.5h-263q-30 0 -55.5 -18t-25.5 -50v-127q0 -32 24.5 -49.5t56.5 -17.5h263q32 0 56.5 17.5t24.5 49.5v127zM1445 172q24 0 33 -8t9 -27v-11q0 -20 -9 -28t-33 -8h-158
q-24 0 -32.5 7.5t-8.5 28.5v11q0 19 9 27t33 8h157z" />
    <glyph glyph-name="FL2039h" unicode="&#x2039;" horiz-adv-x="220" 
d="M171 300v142l-122 -115v-126l122 -114v141l-50 36z" />
    <glyph glyph-name="FL203Ah" unicode="&#x203a;" horiz-adv-x="220" 
d="M49 300v142l122 -115v-126l-122 -114v141l50 36z" />
    <glyph glyph-name="FL20ACh" unicode="&#x20ac;" horiz-adv-x="1049" 
d="M49 424h154q7 23 23.5 41.5t38 31.5t46.5 20t49 7h640v-137h-338v-94h-322v-61h322v-94h338v-138h-640q-27 0 -52.5 7t-46.5 19.5t-36.5 31.5t-22.5 43h-153v131h149v61h-149v131z" />
    <glyph glyph-name="FL2122h" unicode="&#x2122;" horiz-adv-x="359" 
d="M95 558v-113h21v113h46v21h-113v-21h46zM184 575v-130h14v87l7 7l32 -86q2 -6 4 -7t4 -1h4q2 0 4.5 2.5t7.5 12t12 29t18 53.5l5 -10v-87h14v134h-5q-7 0 -11 -1.5t-8 -6.5t-9.5 -15t-15.5 -26q-1 -1 -1 -5q-3 -13 -6 -21.5t-8 -19.5l-25 66q-6 17 -18.5 24t-10.5 7
q-8 0 -8 -6z" />
    </font>
</defs>
</svg>
